<svg xmlns="http://www.w3.org/2000/svg" width="21.026" height="14.575" viewBox="0 0 21.026 14.575"><defs><style>.a{fill:#ffd600;}</style></defs><path class="a" d="M11.577,24a1.493,1.493,0,0,0-.838.263l9,8.382a1.044,1.044,0,0,0,1.528,0l9.018-8.391A1.5,1.5,0,0,0,29.449,24ZM10.09,25.139a1.776,1.776,0,0,0-.09.543V36.893a1.628,1.628,0,0,0,1.577,1.682H29.449a1.628,1.628,0,0,0,1.577-1.682V25.682a1.776,1.776,0,0,0-.09-.543l-8.977,8.356a2.1,2.1,0,0,1-2.907-.009L10.09,25.139Z" transform="translate(-10 -24)"/></svg>