<svg xmlns="http://www.w3.org/2000/svg" width="150.043" height="109.985" viewBox="0 0 150.043 109.985"><defs><style>.a{fill:#fff;}.b{fill:#ffd600;}</style></defs><g transform="translate(0 70.541)"><path class="a" d="M27.782,125.46H13l.843-2.681v-18L13,102.1H27.859l3.676,3.676V110.3l-2.528,2.528,2.834,2.834v5.821ZM24.8,108.687l-.536-1-1-.536H20.429l-.306.306v2.987l.306.306h2.834l1-.536.536-1Zm.153,8.808-.536-1-1.3-.689H20.429l-.306.306v3.676l.536.536h2.528l1.3-.689.536-1v-1.149Z" transform="translate(-13 -102.1)"/><path class="a" d="M57.79,104.881l-5.821,11.642v5.515l1.149,3.523H44.463l1.149-3.523v-5.132l-5.974-12.025L37.8,102.2H46l.306,2.3,2.528,4.978.306,1,.306-1,2.528-4.978.306-2.3h7.353Z" transform="translate(-18.805 -102.123)"/><path class="a" d="M92.369,117.648H85.706l-.306.306v4.519l1,2.987H78.2l.843-2.681v-18L78.2,102.1H92.676l4.366,4.366v6.51Zm-1.838-8.2-.689-1.3-1.3-.689H85.706l-.306.306V111.9l.306.306H88.54l1.3-.689.689-1.3v-.766Z" transform="translate(-28.262 -102.1)"/><path class="a" d="M116.146,125.46l.306-2.681-.536-1.991-.306-.306H110.1l-.306.306-.536,1.991.306,2.681H101.9l1.3-2.681,4.672-18.535-.536-2.145h11.336l-.536,2.145,4.672,18.535,1.3,2.681ZM113.006,108l-.153-1.149L112.7,108l-1.685,7.2.306.306h2.987l.306-.306Z" transform="translate(-33.81 -102.1)"/><path class="a" d="M147.669,117.648h-6.663l-.306.306v4.519l1,2.987h-8.2l.843-2.681v-18L133.5,102.1h14.476l4.366,4.366v6.51Zm-1.838-8.2-.689-1.3-1.3-.689h-2.834l-.306.306V111.9l.306.306h2.834l1.3-.689.689-1.3Z" transform="translate(-41.207 -102.1)"/><path class="a" d="M171.346,125.46l.306-2.681-.536-1.991-.306-.306H165.3l-.306.306-.536,1.991.306,2.681H157.1l1.3-2.681,4.672-18.535-.536-2.145h11.336l-.536,2.145,4.672,18.535,1.3,2.681ZM168.282,108l-.153-1.149L167.976,108l-1.685,7.2.306.306h2.987l.306-.306Z" transform="translate(-46.732 -102.1)"/><path class="a" d="M200.986,107.485h-4.749l-1,.536-.536,1v.689l.689.689,5.132,1.149,3.14,3.14v6.51L199.3,125.56h-9.8l-2.3-6.817,3.523,1.149h4.749l1-.536.536-1v-1.3l-.842-.842-5.132-1.149-2.987-2.987v-5.515l4.366-4.366h9.344l2.068,6.357Z" transform="translate(-53.778 -102.123)"/></g><g transform="translate(0 103.705)"><path class="b" d="M16.523,151.6H13l.153-.689v-4.825L13,145.4h3.523l1,1v1.225l-.689.689.766.766v1.532Zm-.383-4.672-.153-.383L15.6,146.4H14.532l-.077.077v1.149l.077.077H15.6l.383-.153.153-.383Zm0,2.451L15.987,149l-.46-.23h-1l-.077.077V150.3l.153.153h.919l.46-.23.153-.383Z" transform="translate(-13 -145.4)"/><path class="b" d="M34.176,151.6H30.5l.153-.689v-4.825L30.5,145.4h3.523l.46,1.3-.766-.23H32.108l-.077.077v1.072l.077.077h.766l.689-.23V149l-.689-.23h-.766l-.077.077V150.3l.153.153h1.532l.919-.306Z" transform="translate(-17.096 -145.4)"/><path class="b" d="M50.147,151.6H46.7l.153-.689v-4.825L46.7,145.4h1.762l-.23.919v4.059l.153.153h1.379l.919-.306Z" transform="translate(-20.889 -145.4)"/><path class="b" d="M66.642,148.77v1.149l.077.536L65.57,151.6H63.349L62.2,150.455v-3.83l1.225-1.225h2.528l.46,1.455-.919-.306H64.345l-.46.23-.23.46v2.681l.153.383.383.153h.919l.23-.23V149l-.383-.689h1.991Z" transform="translate(-24.517 -145.4)"/><path class="b" d="M79.4,151.6l.153-.689v-4.825L79.4,145.4h1.685l-.153.689v4.825l.153.689Z" transform="translate(-28.543 -145.4)"/><path class="b" d="M96.1,151.6l.077-.689-.153-.689-.077-.077H94.262l-.077.077-.153.689.077.689H92.5l.383-.689,1.3-4.9-.153-.613h2.374l-.153.613,1.3,4.9.383.689Zm-1-5.055-.077-.23-.077.23-.613,2.374.077.077h1.072l.077-.077Z" transform="translate(-31.61 -145.4)"/><path class="b" d="M114.8,146.089V151.6h-1.149l-1.915-3.83-.153-.46.077.46v3.14l.153.689h-1.532l.153-.689v-4.825l-.23-.689h1.762l1.532,3.14.153.46-.077-.46v-2.374l-.153-.689h1.532Z" transform="translate(-35.753 -145.4)"/><path class="b" d="M143.917,146.472h-1.608l-.077.077v1.225l.077.077h.766l.689-.23v1.532l-.689-.23h-.766l-.077.077v1.685l.23.919H140.7l.153-.689v-4.825l-.153-.689h3.523l.46,1.3Z" transform="translate(-42.893 -145.4)"/><path class="b" d="M159.617,151.6l-.766-2.3-.153-.077h-.689l-.077.077v1.608l.153.689H156.4l.153-.689v-4.825l-.153-.689h3.676l1.072,1.072V148l-1,1,.689,1.838.46.842h-1.685Zm.077-4.519-.153-.383-.46-.23h-1.072l-.077.077v1.532l.077.077h1.072l.46-.23.153-.383Z" transform="translate(-46.568 -145.4)"/><path class="b" d="M173.9,151.6l.153-.689v-4.825l-.153-.689h1.685l-.153.689v4.825l.153.689Z" transform="translate(-50.664 -145.4)"/><path class="b" d="M191.376,151.6H187.7l.153-.689v-4.825l-.153-.689h3.523l.46,1.3-.766-.23h-1.608l-.077.077v1.072l.077.077h.766l.689-.23V149l-.689-.23h-.766l-.077.077V150.3l.153.153h1.532l.919-.306Z" transform="translate(-53.895 -145.4)"/><path class="b" d="M206.41,151.6H203.96l-.46-1.455.919.306h1.225l.383-.153.153-.383v-.613l-.306-.306-1.3-.306-.842-.842v-1.3l1.149-1.149h2.3l.46,1.3-.766-.23h-1.149l-.383.153-.153.383v.383l.306.306,1.3.306.842.843v1.608Z" transform="translate(-57.593 -145.4)"/></g><g transform="translate(45.725)"><g transform="translate(2.91 1.302)"><path class="a" d="M129.272,38.584C128.889,22.193,116.557,11.7,102.924,11.7,87.912,11.7,76.883,23.725,76.5,38.584h2.374c.383-13.71,10.34-24.816,23.973-24.816s23.59,11.106,23.973,24.816Z" transform="translate(-76.5 -11.7)"/></g><g transform="translate(53.308 28.186)"><path class="a" d="M142.3,46.8v2.834l2.374,2.068V46.8Z" transform="translate(-142.3 -46.8)"/></g><g transform="translate(2.91 28.186)"><path class="a" d="M78.951,46.8v2.834L76.5,51.7V46.8Z" transform="translate(-76.5 -46.8)"/></g><g transform="translate(56.142 34.39)"><path class="b" d="M146,54.9V68.763c1.149-.46,2.145-1.149,2.145-1.991V56.815C148.145,56.049,147.149,55.283,146,54.9Z" transform="translate(-146 -54.9)"/></g><g transform="translate(0 34.39)"><path class="b" d="M72.7,56.815v9.957c0,.766,1,1.532,2.145,1.991V54.9C73.772,55.283,72.7,56.049,72.7,56.815Z" transform="translate(-72.7 -54.9)"/></g><g transform="translate(48.329 30.407)"><path class="a" d="M138.864,49.7H135.8V72.524h3.064c2.757,0,4.9-1.762,4.9-3.83V53.53C143.842,51.462,141.621,49.7,138.864,49.7Z" transform="translate(-135.8 -49.7)"/></g><g transform="translate(1.991 30.407)"><path class="a" d="M75.3,53.53V68.618c0,2.145,2.221,3.83,4.9,3.83h2.987V49.7H80.2C77.445,49.7,75.3,51.462,75.3,53.53Z" transform="translate(-75.3 -49.7)"/></g><g transform="translate(48.406 30.407)"><rect class="a" width="1.072" height="22.824"/></g><g transform="translate(8.808 30.407)"><rect class="a" width="1.072" height="22.824"/></g><g transform="translate(3.998)"><path class="a" d="M128.225,26.084l-.383-.843a27.635,27.635,0,0,0-10.57-11.412h0l-1.225-.689h0A27.468,27.468,0,0,0,103.256,10a27.018,27.018,0,0,0-12.791,3.14h0l-.383.23a8.354,8.354,0,0,0-.843.46h0A27.2,27.2,0,0,0,78.747,25.318l-.383.843L77.981,27a.7.7,0,0,0,.23.843l3.37,1.838a.666.666,0,0,0,.919-.306l.536-1.149A22.9,22.9,0,0,1,91,18.578l.46-.306a22.012,22.012,0,0,1,11.948-3.523,21.031,21.031,0,0,1,11.948,3.523l.46.306a22.9,22.9,0,0,1,7.966,9.651l.536,1.149a.709.709,0,0,0,.919.306l3.37-1.838a.644.644,0,0,0,.306-.843Z" transform="translate(-77.92 -10)"/></g></g><g transform="translate(90.225 29.105)"><path class="b" d="M130.8,72.2a1.21,1.21,0,0,0,1.225,1.225h1.532a1.21,1.21,0,0,0,1.225-1.225V49.225A1.21,1.21,0,0,0,133.557,48h-1.532a1.21,1.21,0,0,0-1.225,1.225Z" transform="translate(-130.8 -48)"/></g><g transform="translate(55.605 29.105)"><path class="b" d="M85.6,72.2a1.21,1.21,0,0,0,1.225,1.225h1.532A1.21,1.21,0,0,0,89.583,72.2V49.225A1.21,1.21,0,0,0,88.357,48H86.825A1.21,1.21,0,0,0,85.6,49.225Z" transform="translate(-85.6 -48)"/></g><g transform="translate(62.499 40.593)"><g transform="translate(0 0)"><path class="b" d="M94.6,75.714a1.21,1.21,0,0,0,1.225,1.225h1.532a1.21,1.21,0,0,0,1.225-1.225V64.225A1.21,1.21,0,0,0,97.357,63H95.825A1.21,1.21,0,0,0,94.6,64.225Z" transform="translate(-94.6 -63)"/></g></g><g transform="translate(69.468 33.7)"><g transform="translate(0)"><path class="b" d="M103.7,73.607a1.21,1.21,0,0,0,1.225,1.225h1.532a1.21,1.21,0,0,0,1.225-1.225V55.225A1.21,1.21,0,0,0,106.457,54h-1.532a1.21,1.21,0,0,0-1.225,1.225Z" transform="translate(-103.7 -54)"/></g></g><g transform="translate(76.362 29.105)"><path class="b" d="M112.7,72.2a1.21,1.21,0,0,0,1.225,1.225h1.532a1.21,1.21,0,0,0,1.225-1.225V49.225A1.21,1.21,0,0,0,115.457,48h-1.532a1.21,1.21,0,0,0-1.225,1.225Z" transform="translate(-112.7 -48)"/></g><g transform="translate(83.255 36.764)"><g transform="translate(0 0)"><path class="b" d="M121.7,74.544a1.21,1.21,0,0,0,1.225,1.225h1.532a1.21,1.21,0,0,0,1.225-1.225V59.225A1.21,1.21,0,0,0,124.457,58h-1.532a1.21,1.21,0,0,0-1.225,1.225Z" transform="translate(-121.7 -58)"/></g></g></svg>