<svg xmlns="http://www.w3.org/2000/svg" width="20.968" height="22.364" viewBox="0 0 20.968 22.364"><defs><style>.a{fill:#ffd600;fill-rule:evenodd;}</style></defs><path class="a" d="M20.484,16C14.689,16,10,21,10,27.182a11.684,11.684,0,0,0,1.851,6.343.592.592,0,0,1,.066.48l-1.065,3.8,3.489-1.284a.5.5,0,0,1,.45.061,9.957,9.957,0,0,0,5.692,1.782c5.8,0,10.484-5,10.484-11.182S26.281,16,20.484,16Zm-4.292,4.875L18.1,24.238l-.794.839a.587.587,0,0,0-.082.673,10.687,10.687,0,0,0,4.66,4.927.5.5,0,0,0,.582-.113l.843-.9,3.08,2.053a3.049,3.049,0,0,1-1.294,1.59,2.963,2.963,0,0,1-2.13.21,11.376,11.376,0,0,1-5.242-3.5,12.658,12.658,0,0,1-3.186-5.652,3.48,3.48,0,0,1,.213-2.219,2.7,2.7,0,0,1,1.442-1.267Z" transform="translate(-10 -16)"/></svg>